<svg preserveAspectRatio="none" width="100%" height="100%" overflow="visible" style="display: block;" viewBox="0 0 25 25" fill="none" xmlns="http://www.w3.org/2000/svg">
<g id="Vector">
<path d="M24.5 12.5C24.5 19.1274 19.1274 24.5 12.5 24.5C5.87258 24.5 0.5 19.1274 0.5 12.5C0.5 5.87258 5.87258 0.5 12.5 0.5C19.1274 0.5 24.5 5.87258 24.5 12.5Z" fill="var(--fill-0, white)"/>
<path d="M4.78179 21.6889C5.44693 19.5629 6.93431 17.8002 8.87154 16.7733C9.82081 17.6006 11.0519 18.0986 12.3696 18.0986C13.8271 18.0986 15.1787 17.4893 16.1601 16.499C18.2428 17.409 19.8851 19.139 20.679 21.281C18.5358 23.2781 15.6606 24.5 12.5 24.5C9.5607 24.5 6.86822 23.4432 4.78179 21.6889Z" fill="var(--fill-0, white)"/>
<path fill-rule="evenodd" clip-rule="evenodd" d="M7.02183 11.6756C7.0454 11.6756 7.06721 11.6928 7.07085 11.7165C7.47089 14.3287 9.74887 16.2986 12.3696 16.2986C14.9903 16.2986 17.2682 14.3287 17.6683 11.7165C17.6721 11.6915 17.6946 11.6738 17.7192 11.6756C17.7404 11.6772 17.7598 11.6788 17.7796 11.6788C18.2148 11.6788 18.5688 11.3211 18.5688 10.8815C18.5688 10.4808 18.2697 10.1419 17.8803 10.0915L17.8775 10.1062C17.8667 10.1609 17.8134 10.1887 17.7189 10.1887C17.2121 10.1887 15.2149 9.42345 14.7786 9.25381C14.8107 9.41701 14.8035 9.53101 14.757 9.60083C14.7291 9.64281 14.6865 9.66885 14.6341 9.67611C14.3619 9.7138 14.0843 9.73292 13.8092 9.73292C12.1438 9.73298 10.8454 9.03791 10.2215 8.70385C10.0495 8.61172 9.89994 8.53162 9.8465 8.52495C9.81688 8.55746 9.73018 8.65884 9.6391 8.76544C9.47145 8.96148 9.24183 9.23003 9.12974 9.34901C8.5949 9.91636 7.67097 10.2185 7.20963 10.2185C7.06064 10.2185 6.95404 10.1895 6.8928 10.1322C6.88658 10.1264 6.88203 10.1191 6.87955 10.111C6.87739 10.104 6.87543 10.0969 6.87352 10.0899C6.47614 10.1335 6.1703 10.4739 6.1703 10.8815C6.1703 11.3211 6.52437 11.6788 6.95954 11.6788C6.97931 11.6788 6.99878 11.6772 7.01817 11.6758C7.01941 11.6757 7.02062 11.6756 7.02183 11.6756Z" fill="white"/>
<path fill-rule="evenodd" clip-rule="evenodd" d="M7.22697 10.2292C7.72801 10.2292 8.6113 9.8844 9.07765 9.38969C9.1881 9.27248 9.4167 9.00515 9.58357 8.80993C9.80939 8.54587 9.80939 8.54587 9.82709 8.53978C9.89285 8.51758 9.99695 8.57221 10.2836 8.72567C10.9007 9.05606 12.1848 9.74356 13.8266 9.74356C14.0972 9.74356 14.3704 9.72474 14.6384 9.68765C14.6641 9.68406 14.682 9.67348 14.6948 9.65421C14.7209 9.61506 14.74 9.52097 14.6828 9.29525C14.6784 9.27762 14.6841 9.25901 14.6975 9.24695C14.7111 9.2349 14.7302 9.23158 14.7468 9.23819C15.2569 9.4412 17.2591 10.1993 17.7363 10.1993C17.791 10.1993 17.8037 10.189 17.8039 10.1889C18.1597 8.38172 17.9174 6.85396 17.1154 5.86561C16.2249 4.76832 14.6159 4.21196 12.3332 4.21196C10.2242 4.21196 8.52912 4.94268 7.56022 6.2695C6.77674 7.34244 6.57821 8.8339 6.98434 10.1763C7.02924 10.2104 7.11453 10.2292 7.22697 10.2292Z" fill="white"/>
<path d="M12.5 24.5C19.1274 24.5 24.5 19.1274 24.5 12.5C24.5 5.87258 19.1274 0.5 12.5 0.5C5.87258 0.5 0.5 5.87258 0.5 12.5C0.5 19.1274 5.87258 24.5 12.5 24.5ZM12.5 24.5C15.6606 24.5 18.5358 23.2781 20.679 21.281C19.8851 19.139 18.2428 17.409 16.1601 16.499C15.1787 17.4893 13.8271 18.0986 12.3696 18.0986C11.0519 18.0986 9.82081 17.6006 8.87154 16.7733C6.93431 17.8002 5.44693 19.5629 4.78179 21.6889C6.86822 23.4432 9.5607 24.5 12.5 24.5ZM7.02183 11.6756C7.0454 11.6756 7.06721 11.6928 7.07085 11.7165C7.47089 14.3287 9.74887 16.2986 12.3696 16.2986C14.9903 16.2986 17.2682 14.3287 17.6683 11.7165C17.6721 11.6915 17.6946 11.6738 17.7192 11.6756C17.7404 11.6772 17.7598 11.6788 17.7796 11.6788C18.2148 11.6788 18.5688 11.3211 18.5688 10.8815C18.5688 10.4808 18.2697 10.1419 17.8803 10.0915L17.8775 10.1062C17.8667 10.1609 17.8134 10.1887 17.7189 10.1887C17.2121 10.1887 15.2149 9.42345 14.7786 9.25381C14.8107 9.41701 14.8035 9.53101 14.757 9.60083C14.7291 9.64281 14.6865 9.66885 14.6341 9.67611C14.3619 9.7138 14.0843 9.73292 13.8092 9.73292C12.1438 9.73298 10.8454 9.03791 10.2215 8.70385C10.0495 8.61172 9.89994 8.53162 9.8465 8.52495C9.81688 8.55746 9.73018 8.65884 9.6391 8.76544C9.47145 8.96148 9.24183 9.23003 9.12974 9.34901C8.5949 9.91636 7.67097 10.2185 7.20963 10.2185C7.06064 10.2185 6.95404 10.1895 6.8928 10.1322C6.88658 10.1264 6.88203 10.1191 6.87955 10.111C6.87739 10.104 6.87543 10.0969 6.87352 10.0899C6.47614 10.1335 6.1703 10.4739 6.1703 10.8815C6.1703 11.3211 6.52437 11.6788 6.95954 11.6788C6.97931 11.6788 6.99878 11.6772 7.01817 11.6758C7.01941 11.6757 7.02062 11.6756 7.02183 11.6756ZM7.22697 10.2292C7.72801 10.2292 8.6113 9.8844 9.07765 9.38969C9.1881 9.27248 9.4167 9.00515 9.58357 8.80993C9.80939 8.54587 9.80939 8.54587 9.82709 8.53978C9.89285 8.51758 9.99695 8.57221 10.2836 8.72567C10.9007 9.05606 12.1848 9.74356 13.8266 9.74356C14.0972 9.74356 14.3704 9.72474 14.6384 9.68765C14.6641 9.68406 14.682 9.67348 14.6948 9.65421C14.7209 9.61506 14.74 9.52097 14.6828 9.29525C14.6784 9.27762 14.6841 9.25901 14.6975 9.24695C14.7111 9.2349 14.7302 9.23158 14.7468 9.23819C15.2569 9.4412 17.2591 10.1993 17.7363 10.1993C17.791 10.1993 17.8037 10.189 17.8039 10.1889C18.1597 8.38172 17.9174 6.85396 17.1154 5.86561C16.2249 4.76832 14.6159 4.21196 12.3332 4.21196C10.2242 4.21196 8.52912 4.94268 7.56022 6.2695C6.77674 7.34244 6.57821 8.8339 6.98434 10.1763C7.02924 10.2104 7.11453 10.2292 7.22697 10.2292Z" stroke="var(--stroke-0, #8FABCF)" stroke-linecap="round" stroke-linejoin="round"/>
</g>
</svg>
